<?xml version="1.0" encoding="UTF-8" standalone="no"?>
<!-- Created with Inkscape (http://www.inkscape.org/) -->
<svg
   xmlns:dc="http://purl.org/dc/elements/1.1/"
   xmlns:cc="http://creativecommons.org/ns#"
   xmlns:rdf="http://www.w3.org/1999/02/22-rdf-syntax-ns#"
   xmlns:svg="http://www.w3.org/2000/svg"
   xmlns="http://www.w3.org/2000/svg"
   xmlns:sodipodi="http://sodipodi.sourceforge.net/DTD/sodipodi-0.dtd"
   xmlns:inkscape="http://www.inkscape.org/namespaces/inkscape"
   id="svg2490"
   sodipodi:version="0.32"
   inkscape:version="0.46"
   width="104.30887"
   height="118.30225"
   version="1.0"
   sodipodi:docname="Maccabi.svg"
   inkscape:output_extension="org.inkscape.output.svg.inkscape">
  <metadata
     id="metadata2495">
    <rdf:RDF>
      <cc:Work
         rdf:about="">
        <dc:format>image/svg+xml</dc:format>
        <dc:type
           rdf:resource="http://purl.org/dc/dcmitype/StillImage" />
      </cc:Work>
    </rdf:RDF>
  </metadata>
  <defs
     id="defs2493">
    <inkscape:perspective
       sodipodi:type="inkscape:persp3d"
       inkscape:vp_x="0 : 526.18109 : 1"
       inkscape:vp_y="0 : 1000 : 0"
       inkscape:vp_z="744.09448 : 526.18109 : 1"
       inkscape:persp3d-origin="372.04724 : 350.78739 : 1"
       id="perspective2497" />
  </defs>
  <sodipodi:namedview
     inkscape:window-height="675"
     inkscape:window-width="640"
     inkscape:pageshadow="2"
     inkscape:pageopacity="0.0"
     guidetolerance="10.0"
     gridtolerance="10.0"
     objecttolerance="10.0"
     borderopacity="1.0"
     bordercolor="#666666"
     pagecolor="#ffffff"
     id="base"
     showgrid="false"
     inkscape:zoom="3.9052512"
     inkscape:cx="52.154435"
     inkscape:cy="59.151129"
     inkscape:window-x="22"
     inkscape:window-y="22"
     inkscape:current-layer="svg2490" />
  <g
     id="g2511">
    <g
       id="g24"
       style="fill:#032d85;fill-rule:evenodd;stroke:none;stroke-width:1;stroke-linecap:butt;stroke-linejoin:miter;stroke-dasharray:none"
       transform="matrix(1.25,0,0,1.25,0,30.09037)">
      <path
         id="path26"
         d="M 0,0 C 0,0 26.0146,0 26.0146,0 C 26.0146,0 13.0068,22.918 13.0068,22.918 C 13.0068,22.918 0,0 0,0 z" />
    </g>
    <g
       id="g28"
       style="fill:#032d85;fill-rule:evenodd;stroke:none;stroke-width:1;stroke-linecap:butt;stroke-linejoin:miter;stroke-dasharray:none"
       transform="matrix(1.25,0,0,1.25,0.41737,30.09037)">
      <path
         id="path30"
         d="M 27.3985,0 C 27.3985,0 16.3721,19.1201 16.3721,19.1201 C 16.3721,19.1201 32.4102,19.1201 32.4102,19.1201 C 32.4102,19.1201 32.4102,31.8662 32.4102,31.8662 C 32.4102,31.8662 8.6875,31.8662 8.6875,31.8662 C 8.6875,31.8662 0,46.6245 0,46.6245 C 0,46.6245 41.7657,46.6245 41.7657,46.6245 C 41.7657,46.6245 41.7657,31.8662 41.7657,31.8662 C 41.7657,31.8662 40.4297,31.8662 40.4297,31.8662 C 40.4297,31.8662 40.4297,19.1201 40.4297,19.1201 C 40.4297,19.1201 27.3985,0 27.3985,0 z" />
    </g>
    <g
       id="g32"
       style="fill:#032d85;fill-rule:evenodd;stroke:none;stroke-width:1;stroke-linecap:butt;stroke-linejoin:miter;stroke-dasharray:none"
       transform="matrix(1.25,0,0,1.25,24.22362,58.18362)">
      <path
         id="path34"
         d="M 3.8427,0 C 5.9589,0 7.6855,1.7256 7.6855,3.8418 C 7.6855,5.959 5.9589,7.6846 3.8427,7.6846 C 1.7265,7.6846 0,5.959 0,3.8418 C 0,1.7256 1.7265,0 3.8427,0 z" />
    </g>
    <g
       id="g36"
       style="fill:#032d85;fill-rule:evenodd;stroke:none;stroke-width:1;stroke-linecap:butt;stroke-linejoin:miter;stroke-dasharray:none"
       transform="matrix(1.25,0,0,1.25,34.41887,57.345)">
      <path
         id="path38"
         d="M 0.1553,25.8278 C 0.1553,25.8278 13.5625,48.7658 13.5625,48.7658 C 13.5625,48.7658 26.928,25.8278 26.928,25.8278 C 26.928,25.8278 26.928,0 26.928,0 C 26.928,0 21.916,0 21.916,0 C 21.916,0 21.916,25.8278 21.916,25.8278 C 21.916,25.8278 0,25.8278 0.1553,25.8278 z" />
    </g>
    <g
       id="g40"
       style="fill:#032d85;fill-rule:evenodd;stroke:none;stroke-width:1;stroke-linecap:butt;stroke-linejoin:miter;stroke-dasharray:none"
       transform="matrix(1.25,0,0,1.25,36.94212,30.01462)">
      <path
         id="path42"
         d="M 0.1552,0 C 0.1552,0 13.8232,19.9571 13.8232,19.9571 C 13.8232,19.9571 13.8232,46.6191 13.8232,46.6191 C 13.8232,46.6191 18.9484,40.0701 18.9484,40.0701 C 18.9484,40.0701 18.9484,21.0479 18.9484,21.0479 C 18.9484,21.0479 29.1994,21.0479 29.1994,21.0479 C 29.1994,21.0479 29.1994,32.1182 29.1994,32.1182 C 29.1994,32.1182 25.9374,32.1182 25.9374,32.1182 C 25.9374,32.1182 25.9374,46.6191 25.9374,46.6191 C 25.9374,46.6191 52.6504,46.6191 52.6504,46.6191 C 52.6504,46.6191 39.7594,23.543 39.7594,23.543 C 39.7594,23.543 53.8934,0 53.8934,0 C 53.8934,0 26.8694,0 26.8694,0 C 26.8694,0 15.9974,14.0323 15.9974,14.0323 C 15.9974,14.0323 5.9023,0 5.9023,0 C 5.9023,0 0,0 0.1552,0 z" />
    </g>
    <g
       id="g44"
       style="fill:#032d85;fill-rule:evenodd;stroke:none;stroke-width:1;stroke-linecap:butt;stroke-linejoin:miter;stroke-dasharray:none"
       transform="matrix(1.25,0,0,1.25,35.19524,0)">
      <path
         id="path46"
         d="M 0,23.3877 C 0,23.3877 13.2012,0 13.2012,0 C 13.2012,0 26.8689,23.3877 26.8689,23.3877 C 26.8689,23.3877 17.3949,35.8614 17.3949,35.8614 C 17.3949,35.8614 8.3867,23.3877 8.3867,23.3877 C 8.3867,23.3877 0,23.3877 0,23.3877 z" />
    </g>
  </g>
</svg>
